<mxfile host="app.diagrams.net" agent="Mozilla/5.0 (X11; Linux x86_64; rv:135.0) Gecko/20100101 Firefox/135.0" version="26.0.16">
  <diagram name="PÃ¡gina-1" id="kbX03LIIzT1DDby2dMhH">
    <mxGraphModel dx="3240" dy="1317" grid="1" gridSize="10" guides="1" tooltips="1" connect="1" arrows="1" fold="1" page="1" pageScale="1" pageWidth="850" pageHeight="1100" math="0" shadow="0">
      <root>
        <mxCell id="0" />
        <mxCell id="1" parent="0" />
        <mxCell id="BdUQhUnWWdf__79FDA7E-4" style="edgeStyle=orthogonalEdgeStyle;rounded=0;orthogonalLoop=1;jettySize=auto;html=1;entryX=0.5;entryY=0;entryDx=0;entryDy=0;" edge="1" parent="1" source="BdUQhUnWWdf__79FDA7E-1" target="BdUQhUnWWdf__79FDA7E-3">
          <mxGeometry relative="1" as="geometry" />
        </mxCell>
        <mxCell id="BdUQhUnWWdf__79FDA7E-5" style="edgeStyle=orthogonalEdgeStyle;rounded=0;orthogonalLoop=1;jettySize=auto;html=1;exitX=0;exitY=0.5;exitDx=0;exitDy=0;entryX=0.5;entryY=0;entryDx=0;entryDy=0;" edge="1" parent="1" source="BdUQhUnWWdf__79FDA7E-1" target="BdUQhUnWWdf__79FDA7E-2">
          <mxGeometry relative="1" as="geometry" />
        </mxCell>
        <mxCell id="BdUQhUnWWdf__79FDA7E-1" value="html" style="ellipse;whiteSpace=wrap;html=1;aspect=fixed;" vertex="1" parent="1">
          <mxGeometry y="130" width="80" height="80" as="geometry" />
        </mxCell>
        <mxCell id="BdUQhUnWWdf__79FDA7E-10" style="edgeStyle=orthogonalEdgeStyle;rounded=0;orthogonalLoop=1;jettySize=auto;html=1;" edge="1" parent="1" source="BdUQhUnWWdf__79FDA7E-2" target="BdUQhUnWWdf__79FDA7E-6">
          <mxGeometry relative="1" as="geometry" />
        </mxCell>
        <mxCell id="BdUQhUnWWdf__79FDA7E-12" style="edgeStyle=orthogonalEdgeStyle;rounded=0;orthogonalLoop=1;jettySize=auto;html=1;entryX=0.5;entryY=0;entryDx=0;entryDy=0;" edge="1" parent="1" source="BdUQhUnWWdf__79FDA7E-2" target="BdUQhUnWWdf__79FDA7E-8">
          <mxGeometry relative="1" as="geometry" />
        </mxCell>
        <mxCell id="BdUQhUnWWdf__79FDA7E-13" style="edgeStyle=orthogonalEdgeStyle;rounded=0;orthogonalLoop=1;jettySize=auto;html=1;entryX=0.5;entryY=0;entryDx=0;entryDy=0;" edge="1" parent="1" source="BdUQhUnWWdf__79FDA7E-2" target="BdUQhUnWWdf__79FDA7E-7">
          <mxGeometry relative="1" as="geometry" />
        </mxCell>
        <mxCell id="BdUQhUnWWdf__79FDA7E-2" value="head" style="ellipse;whiteSpace=wrap;html=1;aspect=fixed;" vertex="1" parent="1">
          <mxGeometry x="-390" y="210" width="80" height="80" as="geometry" />
        </mxCell>
        <mxCell id="BdUQhUnWWdf__79FDA7E-27" style="edgeStyle=orthogonalEdgeStyle;rounded=0;orthogonalLoop=1;jettySize=auto;html=1;entryX=0.5;entryY=0;entryDx=0;entryDy=0;" edge="1" parent="1" source="BdUQhUnWWdf__79FDA7E-3" target="BdUQhUnWWdf__79FDA7E-14">
          <mxGeometry relative="1" as="geometry" />
        </mxCell>
        <mxCell id="BdUQhUnWWdf__79FDA7E-28" style="edgeStyle=orthogonalEdgeStyle;rounded=0;orthogonalLoop=1;jettySize=auto;html=1;entryX=0.5;entryY=0;entryDx=0;entryDy=0;" edge="1" parent="1" source="BdUQhUnWWdf__79FDA7E-3" target="BdUQhUnWWdf__79FDA7E-16">
          <mxGeometry relative="1" as="geometry" />
        </mxCell>
        <mxCell id="BdUQhUnWWdf__79FDA7E-79" style="edgeStyle=orthogonalEdgeStyle;rounded=0;orthogonalLoop=1;jettySize=auto;html=1;" edge="1" parent="1" source="BdUQhUnWWdf__79FDA7E-3" target="BdUQhUnWWdf__79FDA7E-15">
          <mxGeometry relative="1" as="geometry" />
        </mxCell>
        <mxCell id="BdUQhUnWWdf__79FDA7E-147" style="edgeStyle=orthogonalEdgeStyle;rounded=0;orthogonalLoop=1;jettySize=auto;html=1;entryX=0;entryY=0.5;entryDx=0;entryDy=0;" edge="1" parent="1" source="BdUQhUnWWdf__79FDA7E-3" target="BdUQhUnWWdf__79FDA7E-143">
          <mxGeometry relative="1" as="geometry">
            <mxPoint x="2770" y="230" as="targetPoint" />
          </mxGeometry>
        </mxCell>
        <mxCell id="BdUQhUnWWdf__79FDA7E-3" value="body" style="ellipse;whiteSpace=wrap;html=1;aspect=fixed;" vertex="1" parent="1">
          <mxGeometry x="840" y="200" width="80" height="80" as="geometry" />
        </mxCell>
        <mxCell id="BdUQhUnWWdf__79FDA7E-6" value="meta" style="ellipse;whiteSpace=wrap;html=1;aspect=fixed;" vertex="1" parent="1">
          <mxGeometry x="-540" y="330" width="80" height="80" as="geometry" />
        </mxCell>
        <mxCell id="BdUQhUnWWdf__79FDA7E-7" value="link" style="ellipse;whiteSpace=wrap;html=1;aspect=fixed;" vertex="1" parent="1">
          <mxGeometry x="-340" y="330" width="80" height="80" as="geometry" />
        </mxCell>
        <mxCell id="BdUQhUnWWdf__79FDA7E-8" value="title" style="ellipse;whiteSpace=wrap;html=1;aspect=fixed;" vertex="1" parent="1">
          <mxGeometry x="-440" y="330" width="80" height="80" as="geometry" />
        </mxCell>
        <mxCell id="BdUQhUnWWdf__79FDA7E-9" value="style" style="ellipse;whiteSpace=wrap;html=1;aspect=fixed;" vertex="1" parent="1">
          <mxGeometry x="-240" y="330" width="80" height="80" as="geometry" />
        </mxCell>
        <mxCell id="BdUQhUnWWdf__79FDA7E-11" style="edgeStyle=orthogonalEdgeStyle;rounded=0;orthogonalLoop=1;jettySize=auto;html=1;entryX=0.468;entryY=-0.024;entryDx=0;entryDy=0;entryPerimeter=0;" edge="1" parent="1" source="BdUQhUnWWdf__79FDA7E-2" target="BdUQhUnWWdf__79FDA7E-9">
          <mxGeometry relative="1" as="geometry" />
        </mxCell>
        <mxCell id="BdUQhUnWWdf__79FDA7E-29" style="edgeStyle=orthogonalEdgeStyle;rounded=0;orthogonalLoop=1;jettySize=auto;html=1;" edge="1" parent="1" source="BdUQhUnWWdf__79FDA7E-14" target="BdUQhUnWWdf__79FDA7E-19">
          <mxGeometry relative="1" as="geometry" />
        </mxCell>
        <mxCell id="BdUQhUnWWdf__79FDA7E-30" style="edgeStyle=orthogonalEdgeStyle;rounded=0;orthogonalLoop=1;jettySize=auto;html=1;entryX=0.5;entryY=0;entryDx=0;entryDy=0;" edge="1" parent="1" source="BdUQhUnWWdf__79FDA7E-14" target="BdUQhUnWWdf__79FDA7E-18">
          <mxGeometry relative="1" as="geometry" />
        </mxCell>
        <mxCell id="BdUQhUnWWdf__79FDA7E-14" value="header" style="ellipse;whiteSpace=wrap;html=1;aspect=fixed;" vertex="1" parent="1">
          <mxGeometry x="110" y="310" width="80" height="80" as="geometry" />
        </mxCell>
        <mxCell id="BdUQhUnWWdf__79FDA7E-42" style="edgeStyle=orthogonalEdgeStyle;rounded=0;orthogonalLoop=1;jettySize=auto;html=1;entryX=0.5;entryY=0;entryDx=0;entryDy=0;" edge="1" parent="1" source="BdUQhUnWWdf__79FDA7E-15" target="BdUQhUnWWdf__79FDA7E-34">
          <mxGeometry relative="1" as="geometry" />
        </mxCell>
        <mxCell id="BdUQhUnWWdf__79FDA7E-80" style="edgeStyle=orthogonalEdgeStyle;rounded=0;orthogonalLoop=1;jettySize=auto;html=1;entryX=0.5;entryY=0;entryDx=0;entryDy=0;" edge="1" parent="1" source="BdUQhUnWWdf__79FDA7E-15" target="BdUQhUnWWdf__79FDA7E-35">
          <mxGeometry relative="1" as="geometry" />
        </mxCell>
        <mxCell id="BdUQhUnWWdf__79FDA7E-108" style="edgeStyle=orthogonalEdgeStyle;rounded=0;orthogonalLoop=1;jettySize=auto;html=1;" edge="1" parent="1" source="BdUQhUnWWdf__79FDA7E-15" target="BdUQhUnWWdf__79FDA7E-37">
          <mxGeometry relative="1" as="geometry" />
        </mxCell>
        <mxCell id="BdUQhUnWWdf__79FDA7E-145" style="edgeStyle=orthogonalEdgeStyle;rounded=0;orthogonalLoop=1;jettySize=auto;html=1;entryX=0.5;entryY=0;entryDx=0;entryDy=0;" edge="1" parent="1" source="BdUQhUnWWdf__79FDA7E-15" target="BdUQhUnWWdf__79FDA7E-36">
          <mxGeometry relative="1" as="geometry" />
        </mxCell>
        <mxCell id="BdUQhUnWWdf__79FDA7E-15" value="main" style="ellipse;whiteSpace=wrap;html=1;aspect=fixed;" vertex="1" parent="1">
          <mxGeometry x="1230" y="290" width="80" height="80" as="geometry" />
        </mxCell>
        <mxCell id="BdUQhUnWWdf__79FDA7E-31" style="edgeStyle=orthogonalEdgeStyle;rounded=0;orthogonalLoop=1;jettySize=auto;html=1;entryX=0.5;entryY=0;entryDx=0;entryDy=0;" edge="1" parent="1" source="BdUQhUnWWdf__79FDA7E-16" target="BdUQhUnWWdf__79FDA7E-25">
          <mxGeometry relative="1" as="geometry" />
        </mxCell>
        <mxCell id="BdUQhUnWWdf__79FDA7E-32" style="edgeStyle=orthogonalEdgeStyle;rounded=0;orthogonalLoop=1;jettySize=auto;html=1;entryX=0.5;entryY=0;entryDx=0;entryDy=0;" edge="1" parent="1" source="BdUQhUnWWdf__79FDA7E-16" target="BdUQhUnWWdf__79FDA7E-20">
          <mxGeometry relative="1" as="geometry" />
        </mxCell>
        <mxCell id="BdUQhUnWWdf__79FDA7E-33" style="edgeStyle=orthogonalEdgeStyle;rounded=0;orthogonalLoop=1;jettySize=auto;html=1;" edge="1" parent="1" source="BdUQhUnWWdf__79FDA7E-16" target="BdUQhUnWWdf__79FDA7E-26">
          <mxGeometry relative="1" as="geometry" />
        </mxCell>
        <mxCell id="BdUQhUnWWdf__79FDA7E-115" style="edgeStyle=orthogonalEdgeStyle;rounded=0;orthogonalLoop=1;jettySize=auto;html=1;entryX=0.5;entryY=0;entryDx=0;entryDy=0;" edge="1" parent="1" source="BdUQhUnWWdf__79FDA7E-16" target="BdUQhUnWWdf__79FDA7E-114">
          <mxGeometry relative="1" as="geometry" />
        </mxCell>
        <mxCell id="BdUQhUnWWdf__79FDA7E-16" value="nav" style="ellipse;whiteSpace=wrap;html=1;aspect=fixed;" vertex="1" parent="1">
          <mxGeometry x="520" y="310" width="80" height="80" as="geometry" />
        </mxCell>
        <mxCell id="BdUQhUnWWdf__79FDA7E-18" value="h1" style="ellipse;whiteSpace=wrap;html=1;aspect=fixed;" vertex="1" parent="1">
          <mxGeometry x="60" y="420" width="80" height="80" as="geometry" />
        </mxCell>
        <mxCell id="BdUQhUnWWdf__79FDA7E-19" value="p" style="ellipse;whiteSpace=wrap;html=1;aspect=fixed;" vertex="1" parent="1">
          <mxGeometry x="160" y="420" width="80" height="80" as="geometry" />
        </mxCell>
        <mxCell id="BdUQhUnWWdf__79FDA7E-20" value="a" style="ellipse;whiteSpace=wrap;html=1;aspect=fixed;" vertex="1" parent="1">
          <mxGeometry x="470" y="420" width="80" height="80" as="geometry" />
        </mxCell>
        <mxCell id="BdUQhUnWWdf__79FDA7E-25" value="a" style="ellipse;whiteSpace=wrap;html=1;aspect=fixed;" vertex="1" parent="1">
          <mxGeometry x="580" y="420" width="80" height="80" as="geometry" />
        </mxCell>
        <mxCell id="BdUQhUnWWdf__79FDA7E-26" value="a" style="ellipse;whiteSpace=wrap;html=1;aspect=fixed;" vertex="1" parent="1">
          <mxGeometry x="680" y="420" width="80" height="80" as="geometry" />
        </mxCell>
        <mxCell id="BdUQhUnWWdf__79FDA7E-40" style="edgeStyle=orthogonalEdgeStyle;rounded=0;orthogonalLoop=1;jettySize=auto;html=1;entryX=0.5;entryY=0;entryDx=0;entryDy=0;" edge="1" parent="1" source="BdUQhUnWWdf__79FDA7E-34" target="BdUQhUnWWdf__79FDA7E-38">
          <mxGeometry relative="1" as="geometry" />
        </mxCell>
        <mxCell id="BdUQhUnWWdf__79FDA7E-34" value="section" style="ellipse;whiteSpace=wrap;html=1;aspect=fixed;" vertex="1" parent="1">
          <mxGeometry x="900" y="400" width="80" height="80" as="geometry" />
        </mxCell>
        <mxCell id="BdUQhUnWWdf__79FDA7E-62" style="edgeStyle=orthogonalEdgeStyle;rounded=0;orthogonalLoop=1;jettySize=auto;html=1;entryX=0.5;entryY=0;entryDx=0;entryDy=0;" edge="1" parent="1" source="BdUQhUnWWdf__79FDA7E-35" target="BdUQhUnWWdf__79FDA7E-43">
          <mxGeometry relative="1" as="geometry" />
        </mxCell>
        <mxCell id="BdUQhUnWWdf__79FDA7E-35" value="section" style="ellipse;whiteSpace=wrap;html=1;aspect=fixed;" vertex="1" parent="1">
          <mxGeometry x="1345" y="400" width="80" height="80" as="geometry" />
        </mxCell>
        <mxCell id="BdUQhUnWWdf__79FDA7E-148" style="edgeStyle=orthogonalEdgeStyle;rounded=0;orthogonalLoop=1;jettySize=auto;html=1;entryX=0.5;entryY=0;entryDx=0;entryDy=0;" edge="1" parent="1" source="BdUQhUnWWdf__79FDA7E-36" target="BdUQhUnWWdf__79FDA7E-109">
          <mxGeometry relative="1" as="geometry" />
        </mxCell>
        <mxCell id="BdUQhUnWWdf__79FDA7E-149" style="edgeStyle=orthogonalEdgeStyle;rounded=0;orthogonalLoop=1;jettySize=auto;html=1;entryX=0.5;entryY=0;entryDx=0;entryDy=0;" edge="1" parent="1" source="BdUQhUnWWdf__79FDA7E-36" target="BdUQhUnWWdf__79FDA7E-110">
          <mxGeometry relative="1" as="geometry" />
        </mxCell>
        <mxCell id="BdUQhUnWWdf__79FDA7E-36" value="section" style="ellipse;whiteSpace=wrap;html=1;aspect=fixed;" vertex="1" parent="1">
          <mxGeometry x="4270" y="400" width="80" height="80" as="geometry" />
        </mxCell>
        <mxCell id="BdUQhUnWWdf__79FDA7E-71" style="edgeStyle=orthogonalEdgeStyle;rounded=0;orthogonalLoop=1;jettySize=auto;html=1;entryX=0.5;entryY=0;entryDx=0;entryDy=0;" edge="1" parent="1" source="BdUQhUnWWdf__79FDA7E-37" target="BdUQhUnWWdf__79FDA7E-63">
          <mxGeometry relative="1" as="geometry" />
        </mxCell>
        <mxCell id="BdUQhUnWWdf__79FDA7E-37" value="section" style="ellipse;whiteSpace=wrap;html=1;aspect=fixed;" vertex="1" parent="1">
          <mxGeometry x="2230" y="400" width="80" height="80" as="geometry" />
        </mxCell>
        <mxCell id="BdUQhUnWWdf__79FDA7E-38" value="h2" style="ellipse;whiteSpace=wrap;html=1;aspect=fixed;" vertex="1" parent="1">
          <mxGeometry x="810" y="490" width="80" height="80" as="geometry" />
        </mxCell>
        <mxCell id="BdUQhUnWWdf__79FDA7E-39" value="p" style="ellipse;whiteSpace=wrap;html=1;aspect=fixed;" vertex="1" parent="1">
          <mxGeometry x="980" y="490" width="80" height="80" as="geometry" />
        </mxCell>
        <mxCell id="BdUQhUnWWdf__79FDA7E-41" style="edgeStyle=orthogonalEdgeStyle;rounded=0;orthogonalLoop=1;jettySize=auto;html=1;exitX=1;exitY=0.5;exitDx=0;exitDy=0;entryX=0.575;entryY=0.046;entryDx=0;entryDy=0;entryPerimeter=0;" edge="1" parent="1" source="BdUQhUnWWdf__79FDA7E-34" target="BdUQhUnWWdf__79FDA7E-39">
          <mxGeometry relative="1" as="geometry" />
        </mxCell>
        <mxCell id="BdUQhUnWWdf__79FDA7E-43" value="h2" style="ellipse;whiteSpace=wrap;html=1;aspect=fixed;" vertex="1" parent="1">
          <mxGeometry x="1250" y="490" width="80" height="80" as="geometry" />
        </mxCell>
        <mxCell id="BdUQhUnWWdf__79FDA7E-52" style="edgeStyle=orthogonalEdgeStyle;rounded=0;orthogonalLoop=1;jettySize=auto;html=1;entryX=0.5;entryY=0;entryDx=0;entryDy=0;" edge="1" parent="1" target="BdUQhUnWWdf__79FDA7E-45">
          <mxGeometry relative="1" as="geometry">
            <mxPoint x="1510" y="600" as="sourcePoint" />
            <Array as="points">
              <mxPoint x="1780" y="600" />
            </Array>
          </mxGeometry>
        </mxCell>
        <mxCell id="BdUQhUnWWdf__79FDA7E-53" style="edgeStyle=orthogonalEdgeStyle;rounded=0;orthogonalLoop=1;jettySize=auto;html=1;entryX=0.5;entryY=0;entryDx=0;entryDy=0;" edge="1" parent="1" target="BdUQhUnWWdf__79FDA7E-46">
          <mxGeometry relative="1" as="geometry">
            <mxPoint x="1510" y="600" as="sourcePoint" />
            <Array as="points">
              <mxPoint x="1670" y="600" />
            </Array>
          </mxGeometry>
        </mxCell>
        <mxCell id="BdUQhUnWWdf__79FDA7E-54" style="edgeStyle=orthogonalEdgeStyle;rounded=0;orthogonalLoop=1;jettySize=auto;html=1;entryX=0.5;entryY=0;entryDx=0;entryDy=0;" edge="1" parent="1" target="BdUQhUnWWdf__79FDA7E-47">
          <mxGeometry relative="1" as="geometry">
            <mxPoint x="1510" y="600" as="sourcePoint" />
          </mxGeometry>
        </mxCell>
        <mxCell id="BdUQhUnWWdf__79FDA7E-55" style="edgeStyle=orthogonalEdgeStyle;rounded=0;orthogonalLoop=1;jettySize=auto;html=1;entryX=0.5;entryY=0;entryDx=0;entryDy=0;" edge="1" parent="1" target="BdUQhUnWWdf__79FDA7E-48">
          <mxGeometry relative="1" as="geometry">
            <mxPoint x="1510" y="600" as="sourcePoint" />
          </mxGeometry>
        </mxCell>
        <mxCell id="BdUQhUnWWdf__79FDA7E-56" style="edgeStyle=orthogonalEdgeStyle;rounded=0;orthogonalLoop=1;jettySize=auto;html=1;" edge="1" parent="1" target="BdUQhUnWWdf__79FDA7E-49">
          <mxGeometry relative="1" as="geometry">
            <mxPoint x="1510" y="600" as="sourcePoint" />
            <mxPoint x="1340" y="690" as="targetPoint" />
            <Array as="points">
              <mxPoint x="1340" y="600" />
            </Array>
          </mxGeometry>
        </mxCell>
        <mxCell id="BdUQhUnWWdf__79FDA7E-58" style="edgeStyle=orthogonalEdgeStyle;rounded=0;orthogonalLoop=1;jettySize=auto;html=1;" edge="1" parent="1" target="BdUQhUnWWdf__79FDA7E-50">
          <mxGeometry relative="1" as="geometry">
            <mxPoint x="1510" y="600" as="sourcePoint" />
            <Array as="points">
              <mxPoint x="1240" y="600" />
            </Array>
          </mxGeometry>
        </mxCell>
        <mxCell id="BdUQhUnWWdf__79FDA7E-87" style="edgeStyle=orthogonalEdgeStyle;rounded=0;orthogonalLoop=1;jettySize=auto;html=1;exitX=0.5;exitY=1;exitDx=0;exitDy=0;" edge="1" parent="1" source="BdUQhUnWWdf__79FDA7E-44">
          <mxGeometry relative="1" as="geometry">
            <mxPoint x="1509.7142857142858" y="600" as="targetPoint" />
          </mxGeometry>
        </mxCell>
        <mxCell id="BdUQhUnWWdf__79FDA7E-44" value="div" style="ellipse;whiteSpace=wrap;html=1;aspect=fixed;" vertex="1" parent="1">
          <mxGeometry x="1470" y="490" width="80" height="80" as="geometry" />
        </mxCell>
        <mxCell id="BdUQhUnWWdf__79FDA7E-45" value="img" style="ellipse;whiteSpace=wrap;html=1;aspect=fixed;" vertex="1" parent="1">
          <mxGeometry x="1740" y="690" width="80" height="80" as="geometry" />
        </mxCell>
        <mxCell id="BdUQhUnWWdf__79FDA7E-46" value="img" style="ellipse;whiteSpace=wrap;html=1;aspect=fixed;" vertex="1" parent="1">
          <mxGeometry x="1630" y="690" width="80" height="80" as="geometry" />
        </mxCell>
        <mxCell id="BdUQhUnWWdf__79FDA7E-47" value="img" style="ellipse;whiteSpace=wrap;html=1;aspect=fixed;" vertex="1" parent="1">
          <mxGeometry x="1520" y="690" width="80" height="80" as="geometry" />
        </mxCell>
        <mxCell id="BdUQhUnWWdf__79FDA7E-48" value="img" style="ellipse;whiteSpace=wrap;html=1;aspect=fixed;" vertex="1" parent="1">
          <mxGeometry x="1410" y="690" width="80" height="80" as="geometry" />
        </mxCell>
        <mxCell id="BdUQhUnWWdf__79FDA7E-49" value="img" style="ellipse;whiteSpace=wrap;html=1;aspect=fixed;" vertex="1" parent="1">
          <mxGeometry x="1300" y="690" width="80" height="80" as="geometry" />
        </mxCell>
        <mxCell id="BdUQhUnWWdf__79FDA7E-50" value="img" style="ellipse;whiteSpace=wrap;html=1;aspect=fixed;" vertex="1" parent="1">
          <mxGeometry x="1200" y="690" width="80" height="80" as="geometry" />
        </mxCell>
        <mxCell id="BdUQhUnWWdf__79FDA7E-59" style="edgeStyle=orthogonalEdgeStyle;rounded=0;orthogonalLoop=1;jettySize=auto;html=1;entryX=0.625;entryY=0;entryDx=0;entryDy=0;entryPerimeter=0;" edge="1" parent="1" source="BdUQhUnWWdf__79FDA7E-35" target="BdUQhUnWWdf__79FDA7E-44">
          <mxGeometry relative="1" as="geometry" />
        </mxCell>
        <mxCell id="BdUQhUnWWdf__79FDA7E-63" value="h2" style="ellipse;whiteSpace=wrap;html=1;aspect=fixed;" vertex="1" parent="1">
          <mxGeometry x="1980" y="490" width="80" height="80" as="geometry" />
        </mxCell>
        <mxCell id="BdUQhUnWWdf__79FDA7E-73" style="edgeStyle=orthogonalEdgeStyle;rounded=0;orthogonalLoop=1;jettySize=auto;html=1;entryX=0.5;entryY=0;entryDx=0;entryDy=0;" edge="1" parent="1" source="BdUQhUnWWdf__79FDA7E-64" target="BdUQhUnWWdf__79FDA7E-65">
          <mxGeometry relative="1" as="geometry" />
        </mxCell>
        <mxCell id="BdUQhUnWWdf__79FDA7E-64" value="table" style="ellipse;whiteSpace=wrap;html=1;aspect=fixed;" vertex="1" parent="1">
          <mxGeometry x="2535" y="490" width="80" height="80" as="geometry" />
        </mxCell>
        <mxCell id="BdUQhUnWWdf__79FDA7E-75" style="edgeStyle=orthogonalEdgeStyle;rounded=0;orthogonalLoop=1;jettySize=auto;html=1;" edge="1" parent="1" source="BdUQhUnWWdf__79FDA7E-65" target="BdUQhUnWWdf__79FDA7E-67">
          <mxGeometry relative="1" as="geometry" />
        </mxCell>
        <mxCell id="BdUQhUnWWdf__79FDA7E-65" value="thead" style="ellipse;whiteSpace=wrap;html=1;aspect=fixed;" vertex="1" parent="1">
          <mxGeometry x="2150" y="600" width="80" height="80" as="geometry" />
        </mxCell>
        <mxCell id="BdUQhUnWWdf__79FDA7E-105" style="edgeStyle=orthogonalEdgeStyle;rounded=0;orthogonalLoop=1;jettySize=auto;html=1;" edge="1" parent="1" source="BdUQhUnWWdf__79FDA7E-66" target="BdUQhUnWWdf__79FDA7E-82">
          <mxGeometry relative="1" as="geometry" />
        </mxCell>
        <mxCell id="BdUQhUnWWdf__79FDA7E-106" style="edgeStyle=orthogonalEdgeStyle;rounded=0;orthogonalLoop=1;jettySize=auto;html=1;entryX=0.5;entryY=0;entryDx=0;entryDy=0;" edge="1" parent="1" source="BdUQhUnWWdf__79FDA7E-66" target="BdUQhUnWWdf__79FDA7E-101">
          <mxGeometry relative="1" as="geometry" />
        </mxCell>
        <mxCell id="BdUQhUnWWdf__79FDA7E-107" style="edgeStyle=orthogonalEdgeStyle;rounded=0;orthogonalLoop=1;jettySize=auto;html=1;" edge="1" parent="1" source="BdUQhUnWWdf__79FDA7E-66" target="BdUQhUnWWdf__79FDA7E-94">
          <mxGeometry relative="1" as="geometry" />
        </mxCell>
        <mxCell id="BdUQhUnWWdf__79FDA7E-66" value="tbody" style="ellipse;whiteSpace=wrap;html=1;aspect=fixed;" vertex="1" parent="1">
          <mxGeometry x="3130" y="600" width="80" height="80" as="geometry" />
        </mxCell>
        <mxCell id="BdUQhUnWWdf__79FDA7E-76" style="edgeStyle=orthogonalEdgeStyle;rounded=0;orthogonalLoop=1;jettySize=auto;html=1;entryX=0.5;entryY=0;entryDx=0;entryDy=0;" edge="1" parent="1" source="BdUQhUnWWdf__79FDA7E-67" target="BdUQhUnWWdf__79FDA7E-69">
          <mxGeometry relative="1" as="geometry" />
        </mxCell>
        <mxCell id="BdUQhUnWWdf__79FDA7E-77" style="edgeStyle=orthogonalEdgeStyle;rounded=0;orthogonalLoop=1;jettySize=auto;html=1;entryX=0.5;entryY=0;entryDx=0;entryDy=0;" edge="1" parent="1" source="BdUQhUnWWdf__79FDA7E-67" target="BdUQhUnWWdf__79FDA7E-68">
          <mxGeometry relative="1" as="geometry" />
        </mxCell>
        <mxCell id="BdUQhUnWWdf__79FDA7E-78" style="edgeStyle=orthogonalEdgeStyle;rounded=0;orthogonalLoop=1;jettySize=auto;html=1;" edge="1" parent="1" source="BdUQhUnWWdf__79FDA7E-67" target="BdUQhUnWWdf__79FDA7E-70">
          <mxGeometry relative="1" as="geometry" />
        </mxCell>
        <mxCell id="BdUQhUnWWdf__79FDA7E-67" value="tr" style="ellipse;whiteSpace=wrap;html=1;aspect=fixed;" vertex="1" parent="1">
          <mxGeometry x="2150" y="730" width="80" height="80" as="geometry" />
        </mxCell>
        <mxCell id="BdUQhUnWWdf__79FDA7E-68" value="&lt;div&gt;th&lt;/div&gt;" style="ellipse;whiteSpace=wrap;html=1;aspect=fixed;" vertex="1" parent="1">
          <mxGeometry x="2150" y="840" width="80" height="80" as="geometry" />
        </mxCell>
        <mxCell id="BdUQhUnWWdf__79FDA7E-69" value="&lt;div&gt;th&lt;/div&gt;" style="ellipse;whiteSpace=wrap;html=1;aspect=fixed;" vertex="1" parent="1">
          <mxGeometry x="2030" y="840" width="80" height="80" as="geometry" />
        </mxCell>
        <mxCell id="BdUQhUnWWdf__79FDA7E-70" value="&lt;div&gt;th&lt;/div&gt;" style="ellipse;whiteSpace=wrap;html=1;aspect=fixed;" vertex="1" parent="1">
          <mxGeometry x="2260" y="840" width="80" height="80" as="geometry" />
        </mxCell>
        <mxCell id="BdUQhUnWWdf__79FDA7E-72" style="edgeStyle=orthogonalEdgeStyle;rounded=0;orthogonalLoop=1;jettySize=auto;html=1;entryX=0.601;entryY=-0.037;entryDx=0;entryDy=0;entryPerimeter=0;" edge="1" parent="1" source="BdUQhUnWWdf__79FDA7E-37" target="BdUQhUnWWdf__79FDA7E-64">
          <mxGeometry relative="1" as="geometry" />
        </mxCell>
        <mxCell id="BdUQhUnWWdf__79FDA7E-74" style="edgeStyle=orthogonalEdgeStyle;rounded=0;orthogonalLoop=1;jettySize=auto;html=1;entryX=0.627;entryY=0.011;entryDx=0;entryDy=0;entryPerimeter=0;" edge="1" parent="1" source="BdUQhUnWWdf__79FDA7E-64" target="BdUQhUnWWdf__79FDA7E-66">
          <mxGeometry relative="1" as="geometry" />
        </mxCell>
        <mxCell id="BdUQhUnWWdf__79FDA7E-88" style="edgeStyle=orthogonalEdgeStyle;rounded=0;orthogonalLoop=1;jettySize=auto;html=1;" edge="1" parent="1" source="BdUQhUnWWdf__79FDA7E-82" target="BdUQhUnWWdf__79FDA7E-85">
          <mxGeometry relative="1" as="geometry" />
        </mxCell>
        <mxCell id="BdUQhUnWWdf__79FDA7E-89" style="edgeStyle=orthogonalEdgeStyle;rounded=0;orthogonalLoop=1;jettySize=auto;html=1;entryX=0.5;entryY=0;entryDx=0;entryDy=0;" edge="1" parent="1" source="BdUQhUnWWdf__79FDA7E-82" target="BdUQhUnWWdf__79FDA7E-86">
          <mxGeometry relative="1" as="geometry" />
        </mxCell>
        <mxCell id="BdUQhUnWWdf__79FDA7E-90" style="edgeStyle=orthogonalEdgeStyle;rounded=0;orthogonalLoop=1;jettySize=auto;html=1;entryX=0.5;entryY=0;entryDx=0;entryDy=0;" edge="1" parent="1" source="BdUQhUnWWdf__79FDA7E-82" target="BdUQhUnWWdf__79FDA7E-84">
          <mxGeometry relative="1" as="geometry" />
        </mxCell>
        <mxCell id="BdUQhUnWWdf__79FDA7E-82" value="tr" style="ellipse;whiteSpace=wrap;html=1;aspect=fixed;" vertex="1" parent="1">
          <mxGeometry x="2705" y="730" width="80" height="80" as="geometry" />
        </mxCell>
        <mxCell id="BdUQhUnWWdf__79FDA7E-84" value="td" style="ellipse;whiteSpace=wrap;html=1;aspect=fixed;" vertex="1" parent="1">
          <mxGeometry x="2705" y="850" width="80" height="80" as="geometry" />
        </mxCell>
        <mxCell id="BdUQhUnWWdf__79FDA7E-85" value="td" style="ellipse;whiteSpace=wrap;html=1;aspect=fixed;" vertex="1" parent="1">
          <mxGeometry x="2590" y="850" width="80" height="80" as="geometry" />
        </mxCell>
        <mxCell id="BdUQhUnWWdf__79FDA7E-86" value="td" style="ellipse;whiteSpace=wrap;html=1;aspect=fixed;" vertex="1" parent="1">
          <mxGeometry x="2820" y="850" width="80" height="80" as="geometry" />
        </mxCell>
        <mxCell id="BdUQhUnWWdf__79FDA7E-91" style="edgeStyle=orthogonalEdgeStyle;rounded=0;orthogonalLoop=1;jettySize=auto;html=1;" edge="1" parent="1" source="BdUQhUnWWdf__79FDA7E-94" target="BdUQhUnWWdf__79FDA7E-96">
          <mxGeometry relative="1" as="geometry" />
        </mxCell>
        <mxCell id="BdUQhUnWWdf__79FDA7E-92" style="edgeStyle=orthogonalEdgeStyle;rounded=0;orthogonalLoop=1;jettySize=auto;html=1;entryX=0.5;entryY=0;entryDx=0;entryDy=0;" edge="1" parent="1" source="BdUQhUnWWdf__79FDA7E-94" target="BdUQhUnWWdf__79FDA7E-97">
          <mxGeometry relative="1" as="geometry" />
        </mxCell>
        <mxCell id="BdUQhUnWWdf__79FDA7E-93" style="edgeStyle=orthogonalEdgeStyle;rounded=0;orthogonalLoop=1;jettySize=auto;html=1;entryX=0.5;entryY=0;entryDx=0;entryDy=0;" edge="1" parent="1" source="BdUQhUnWWdf__79FDA7E-94" target="BdUQhUnWWdf__79FDA7E-95">
          <mxGeometry relative="1" as="geometry" />
        </mxCell>
        <mxCell id="BdUQhUnWWdf__79FDA7E-94" value="tr" style="ellipse;whiteSpace=wrap;html=1;aspect=fixed;" vertex="1" parent="1">
          <mxGeometry x="3130" y="730" width="80" height="80" as="geometry" />
        </mxCell>
        <mxCell id="BdUQhUnWWdf__79FDA7E-95" value="td" style="ellipse;whiteSpace=wrap;html=1;aspect=fixed;" vertex="1" parent="1">
          <mxGeometry x="3130" y="850" width="80" height="80" as="geometry" />
        </mxCell>
        <mxCell id="BdUQhUnWWdf__79FDA7E-96" value="td" style="ellipse;whiteSpace=wrap;html=1;aspect=fixed;" vertex="1" parent="1">
          <mxGeometry x="3010" y="850" width="80" height="80" as="geometry" />
        </mxCell>
        <mxCell id="BdUQhUnWWdf__79FDA7E-97" value="td" style="ellipse;whiteSpace=wrap;html=1;aspect=fixed;" vertex="1" parent="1">
          <mxGeometry x="3250" y="850" width="80" height="80" as="geometry" />
        </mxCell>
        <mxCell id="BdUQhUnWWdf__79FDA7E-98" style="edgeStyle=orthogonalEdgeStyle;rounded=0;orthogonalLoop=1;jettySize=auto;html=1;" edge="1" parent="1" source="BdUQhUnWWdf__79FDA7E-101" target="BdUQhUnWWdf__79FDA7E-103">
          <mxGeometry relative="1" as="geometry" />
        </mxCell>
        <mxCell id="BdUQhUnWWdf__79FDA7E-99" style="edgeStyle=orthogonalEdgeStyle;rounded=0;orthogonalLoop=1;jettySize=auto;html=1;entryX=0.5;entryY=0;entryDx=0;entryDy=0;" edge="1" parent="1" source="BdUQhUnWWdf__79FDA7E-101" target="BdUQhUnWWdf__79FDA7E-104">
          <mxGeometry relative="1" as="geometry" />
        </mxCell>
        <mxCell id="BdUQhUnWWdf__79FDA7E-100" style="edgeStyle=orthogonalEdgeStyle;rounded=0;orthogonalLoop=1;jettySize=auto;html=1;entryX=0.5;entryY=0;entryDx=0;entryDy=0;" edge="1" parent="1" source="BdUQhUnWWdf__79FDA7E-101" target="BdUQhUnWWdf__79FDA7E-102">
          <mxGeometry relative="1" as="geometry" />
        </mxCell>
        <mxCell id="BdUQhUnWWdf__79FDA7E-101" value="tr" style="ellipse;whiteSpace=wrap;html=1;aspect=fixed;" vertex="1" parent="1">
          <mxGeometry x="3565" y="730" width="80" height="80" as="geometry" />
        </mxCell>
        <mxCell id="BdUQhUnWWdf__79FDA7E-102" value="td" style="ellipse;whiteSpace=wrap;html=1;aspect=fixed;" vertex="1" parent="1">
          <mxGeometry x="3565" y="850" width="80" height="80" as="geometry" />
        </mxCell>
        <mxCell id="BdUQhUnWWdf__79FDA7E-103" value="td" style="ellipse;whiteSpace=wrap;html=1;aspect=fixed;" vertex="1" parent="1">
          <mxGeometry x="3450" y="850" width="80" height="80" as="geometry" />
        </mxCell>
        <mxCell id="BdUQhUnWWdf__79FDA7E-104" value="td" style="ellipse;whiteSpace=wrap;html=1;aspect=fixed;" vertex="1" parent="1">
          <mxGeometry x="3680" y="850" width="80" height="80" as="geometry" />
        </mxCell>
        <mxCell id="BdUQhUnWWdf__79FDA7E-109" value="h2" style="ellipse;whiteSpace=wrap;html=1;aspect=fixed;" vertex="1" parent="1">
          <mxGeometry x="4080" y="490" width="80" height="80" as="geometry" />
        </mxCell>
        <mxCell id="BdUQhUnWWdf__79FDA7E-130" style="edgeStyle=orthogonalEdgeStyle;rounded=0;orthogonalLoop=1;jettySize=auto;html=1;entryX=0.5;entryY=0;entryDx=0;entryDy=0;" edge="1" parent="1" source="BdUQhUnWWdf__79FDA7E-110" target="BdUQhUnWWdf__79FDA7E-111">
          <mxGeometry relative="1" as="geometry" />
        </mxCell>
        <mxCell id="BdUQhUnWWdf__79FDA7E-131" style="edgeStyle=orthogonalEdgeStyle;rounded=0;orthogonalLoop=1;jettySize=auto;html=1;entryX=0.5;entryY=0;entryDx=0;entryDy=0;" edge="1" parent="1" source="BdUQhUnWWdf__79FDA7E-110" target="BdUQhUnWWdf__79FDA7E-112">
          <mxGeometry relative="1" as="geometry" />
        </mxCell>
        <mxCell id="BdUQhUnWWdf__79FDA7E-132" style="edgeStyle=orthogonalEdgeStyle;rounded=0;orthogonalLoop=1;jettySize=auto;html=1;entryX=0.5;entryY=0;entryDx=0;entryDy=0;" edge="1" parent="1" source="BdUQhUnWWdf__79FDA7E-110" target="BdUQhUnWWdf__79FDA7E-122">
          <mxGeometry relative="1" as="geometry" />
        </mxCell>
        <mxCell id="BdUQhUnWWdf__79FDA7E-138" style="edgeStyle=orthogonalEdgeStyle;rounded=0;orthogonalLoop=1;jettySize=auto;html=1;entryX=0.5;entryY=0;entryDx=0;entryDy=0;" edge="1" parent="1" source="BdUQhUnWWdf__79FDA7E-110" target="BdUQhUnWWdf__79FDA7E-120">
          <mxGeometry relative="1" as="geometry" />
        </mxCell>
        <mxCell id="BdUQhUnWWdf__79FDA7E-139" style="edgeStyle=orthogonalEdgeStyle;rounded=0;orthogonalLoop=1;jettySize=auto;html=1;entryX=0.5;entryY=0;entryDx=0;entryDy=0;" edge="1" parent="1" source="BdUQhUnWWdf__79FDA7E-110" target="BdUQhUnWWdf__79FDA7E-121">
          <mxGeometry relative="1" as="geometry" />
        </mxCell>
        <mxCell id="BdUQhUnWWdf__79FDA7E-140" style="edgeStyle=orthogonalEdgeStyle;rounded=0;orthogonalLoop=1;jettySize=auto;html=1;" edge="1" parent="1" source="BdUQhUnWWdf__79FDA7E-110" target="BdUQhUnWWdf__79FDA7E-129">
          <mxGeometry relative="1" as="geometry" />
        </mxCell>
        <mxCell id="BdUQhUnWWdf__79FDA7E-141" style="edgeStyle=orthogonalEdgeStyle;rounded=0;orthogonalLoop=1;jettySize=auto;html=1;" edge="1" parent="1" source="BdUQhUnWWdf__79FDA7E-110" target="BdUQhUnWWdf__79FDA7E-127">
          <mxGeometry relative="1" as="geometry" />
        </mxCell>
        <mxCell id="BdUQhUnWWdf__79FDA7E-142" style="edgeStyle=orthogonalEdgeStyle;rounded=0;orthogonalLoop=1;jettySize=auto;html=1;entryX=0.5;entryY=0;entryDx=0;entryDy=0;" edge="1" parent="1" source="BdUQhUnWWdf__79FDA7E-110" target="BdUQhUnWWdf__79FDA7E-128">
          <mxGeometry relative="1" as="geometry" />
        </mxCell>
        <mxCell id="BdUQhUnWWdf__79FDA7E-110" value="form" style="ellipse;whiteSpace=wrap;html=1;aspect=fixed;" vertex="1" parent="1">
          <mxGeometry x="4653" y="490" width="80" height="80" as="geometry" />
        </mxCell>
        <mxCell id="BdUQhUnWWdf__79FDA7E-111" value="&lt;div&gt;label&lt;/div&gt;" style="ellipse;whiteSpace=wrap;html=1;aspect=fixed;" vertex="1" parent="1">
          <mxGeometry x="4280" y="590" width="80" height="80" as="geometry" />
        </mxCell>
        <mxCell id="BdUQhUnWWdf__79FDA7E-112" value="input" style="ellipse;whiteSpace=wrap;html=1;aspect=fixed;" vertex="1" parent="1">
          <mxGeometry x="4400" y="590" width="80" height="80" as="geometry" />
        </mxCell>
        <mxCell id="BdUQhUnWWdf__79FDA7E-114" value="a" style="ellipse;whiteSpace=wrap;html=1;aspect=fixed;" vertex="1" parent="1">
          <mxGeometry x="350" y="420" width="80" height="80" as="geometry" />
        </mxCell>
        <mxCell id="BdUQhUnWWdf__79FDA7E-117" value="&lt;div&gt;label&lt;/div&gt;" style="ellipse;whiteSpace=wrap;html=1;aspect=fixed;" vertex="1" parent="1">
          <mxGeometry x="4773" y="590" width="80" height="80" as="geometry" />
        </mxCell>
        <mxCell id="BdUQhUnWWdf__79FDA7E-118" value="input" style="ellipse;whiteSpace=wrap;html=1;aspect=fixed;" vertex="1" parent="1">
          <mxGeometry x="4993" y="590" width="80" height="80" as="geometry" />
        </mxCell>
        <mxCell id="BdUQhUnWWdf__79FDA7E-119" value="br" style="ellipse;whiteSpace=wrap;html=1;aspect=fixed;" vertex="1" parent="1">
          <mxGeometry x="5103" y="590" width="80" height="80" as="geometry" />
        </mxCell>
        <mxCell id="BdUQhUnWWdf__79FDA7E-120" value="br" style="ellipse;whiteSpace=wrap;html=1;aspect=fixed;" vertex="1" parent="1">
          <mxGeometry x="5223" y="590" width="80" height="80" as="geometry" />
        </mxCell>
        <mxCell id="BdUQhUnWWdf__79FDA7E-121" value="label" style="ellipse;whiteSpace=wrap;html=1;aspect=fixed;" vertex="1" parent="1">
          <mxGeometry x="5333" y="590" width="80" height="80" as="geometry" />
        </mxCell>
        <mxCell id="BdUQhUnWWdf__79FDA7E-122" value="br" style="ellipse;whiteSpace=wrap;html=1;aspect=fixed;" vertex="1" parent="1">
          <mxGeometry x="4528" y="590" width="80" height="80" as="geometry" />
        </mxCell>
        <mxCell id="BdUQhUnWWdf__79FDA7E-123" value="br" style="ellipse;whiteSpace=wrap;html=1;aspect=fixed;" vertex="1" parent="1">
          <mxGeometry x="4653" y="590" width="80" height="80" as="geometry" />
        </mxCell>
        <mxCell id="BdUQhUnWWdf__79FDA7E-124" value="br" style="ellipse;whiteSpace=wrap;html=1;aspect=fixed;" vertex="1" parent="1">
          <mxGeometry x="4883" y="590" width="80" height="80" as="geometry" />
        </mxCell>
        <mxCell id="BdUQhUnWWdf__79FDA7E-125" value="textarea" style="ellipse;whiteSpace=wrap;html=1;aspect=fixed;" vertex="1" parent="1">
          <mxGeometry x="5443" y="590" width="80" height="80" as="geometry" />
        </mxCell>
        <mxCell id="BdUQhUnWWdf__79FDA7E-127" value="br" style="ellipse;whiteSpace=wrap;html=1;aspect=fixed;" vertex="1" parent="1">
          <mxGeometry x="5553" y="590" width="80" height="80" as="geometry" />
        </mxCell>
        <mxCell id="BdUQhUnWWdf__79FDA7E-128" value="br" style="ellipse;whiteSpace=wrap;html=1;aspect=fixed;" vertex="1" parent="1">
          <mxGeometry x="5663" y="590" width="80" height="80" as="geometry" />
        </mxCell>
        <mxCell id="BdUQhUnWWdf__79FDA7E-129" value="input" style="ellipse;whiteSpace=wrap;html=1;aspect=fixed;" vertex="1" parent="1">
          <mxGeometry x="5773" y="590" width="80" height="80" as="geometry" />
        </mxCell>
        <mxCell id="BdUQhUnWWdf__79FDA7E-133" style="edgeStyle=orthogonalEdgeStyle;rounded=0;orthogonalLoop=1;jettySize=auto;html=1;entryX=0.5;entryY=0.047;entryDx=0;entryDy=0;entryPerimeter=0;" edge="1" parent="1" source="BdUQhUnWWdf__79FDA7E-110" target="BdUQhUnWWdf__79FDA7E-123">
          <mxGeometry relative="1" as="geometry" />
        </mxCell>
        <mxCell id="BdUQhUnWWdf__79FDA7E-134" style="edgeStyle=orthogonalEdgeStyle;rounded=0;orthogonalLoop=1;jettySize=auto;html=1;entryX=0.588;entryY=0;entryDx=0;entryDy=0;entryPerimeter=0;" edge="1" parent="1" source="BdUQhUnWWdf__79FDA7E-110" target="BdUQhUnWWdf__79FDA7E-117">
          <mxGeometry relative="1" as="geometry" />
        </mxCell>
        <mxCell id="BdUQhUnWWdf__79FDA7E-135" style="edgeStyle=orthogonalEdgeStyle;rounded=0;orthogonalLoop=1;jettySize=auto;html=1;entryX=0.549;entryY=-0.029;entryDx=0;entryDy=0;entryPerimeter=0;" edge="1" parent="1" source="BdUQhUnWWdf__79FDA7E-110" target="BdUQhUnWWdf__79FDA7E-124">
          <mxGeometry relative="1" as="geometry" />
        </mxCell>
        <mxCell id="BdUQhUnWWdf__79FDA7E-136" style="edgeStyle=orthogonalEdgeStyle;rounded=0;orthogonalLoop=1;jettySize=auto;html=1;entryX=0.458;entryY=-0.022;entryDx=0;entryDy=0;entryPerimeter=0;" edge="1" parent="1" source="BdUQhUnWWdf__79FDA7E-110" target="BdUQhUnWWdf__79FDA7E-118">
          <mxGeometry relative="1" as="geometry" />
        </mxCell>
        <mxCell id="BdUQhUnWWdf__79FDA7E-137" style="edgeStyle=orthogonalEdgeStyle;rounded=0;orthogonalLoop=1;jettySize=auto;html=1;entryX=0.563;entryY=-0.015;entryDx=0;entryDy=0;entryPerimeter=0;" edge="1" parent="1" source="BdUQhUnWWdf__79FDA7E-110" target="BdUQhUnWWdf__79FDA7E-119">
          <mxGeometry relative="1" as="geometry" />
        </mxCell>
        <mxCell id="BdUQhUnWWdf__79FDA7E-146" style="edgeStyle=orthogonalEdgeStyle;rounded=0;orthogonalLoop=1;jettySize=auto;html=1;" edge="1" parent="1" source="BdUQhUnWWdf__79FDA7E-143" target="BdUQhUnWWdf__79FDA7E-144">
          <mxGeometry relative="1" as="geometry" />
        </mxCell>
        <mxCell id="BdUQhUnWWdf__79FDA7E-143" value="footer" style="ellipse;whiteSpace=wrap;html=1;aspect=fixed;" vertex="1" parent="1">
          <mxGeometry x="2950" y="290" width="80" height="80" as="geometry" />
        </mxCell>
        <mxCell id="BdUQhUnWWdf__79FDA7E-144" value="p" style="ellipse;whiteSpace=wrap;html=1;aspect=fixed;" vertex="1" parent="1">
          <mxGeometry x="2950" y="400" width="80" height="80" as="geometry" />
        </mxCell>
      </root>
    </mxGraphModel>
  </diagram>
</mxfile>
